REM DIRINDEX 1\2,1\3,1\4,1\5,1\6
REM DIRNAME cjc030,folder01,folder02,folder03,folder04,folder05
TITLE ""
FILE "Disc4Track61.mp3" MP3
  TRACK 01 AUDIO
    TITLE "3:cjc030_07880"
    INDEX 01 00:00:00
  TRACK 02 AUDIO
    TITLE "0:"
    INDEX 01 00:01:03
  TRACK 03 AUDIO
    TITLE "4:cjc030_07881"
    INDEX 01 00:01:13
  TRACK 04 AUDIO
    TITLE "0:"
    INDEX 01 00:02:14
  TRACK 05 AUDIO
    TITLE "5:cjc030_07882"
    INDEX 01 00:02:24
  TRACK 06 AUDIO
    TITLE "0:"
    INDEX 01 00:03:31
  TRACK 07 AUDIO
    TITLE "6:cjc030_07883"
    INDEX 01 00:03:43
  TRACK 08 AUDIO
    TITLE "0:"
    INDEX 01 00:07:47
  TRACK 09 AUDIO
    TITLE "3:cjc030_07884"
    INDEX 01 00:08:21
  TRACK 10 AUDIO
    TITLE "0:"
    INDEX 01 00:09:30
  TRACK 11 AUDIO
    TITLE "4:cjc030_07885"
    INDEX 01 00:09:40
  TRACK 12 AUDIO
    TITLE "0:"
    INDEX 01 00:12:01
  TRACK 13 AUDIO
    TITLE "5:cjc030_07886"
    INDEX 01 00:12:09
  TRACK 14 AUDIO
    TITLE "0:"
    INDEX 01 00:13:20
  TRACK 15 AUDIO
    TITLE "6:cjc030_07887"
    INDEX 01 00:13:32
  TRACK 16 AUDIO
    TITLE "0:"
    INDEX 01 00:15:44
  TRACK 17 AUDIO
    TITLE "3:cjc030_07888"
    INDEX 01 00:16:18
  TRACK 18 AUDIO
    TITLE "0:"
    INDEX 01 00:17:14
  TRACK 19 AUDIO
    TITLE "4:cjc030_07889"
    INDEX 01 00:17:23
  TRACK 20 AUDIO
    TITLE "0:"
    INDEX 01 00:18:27
  TRACK 21 AUDIO
    TITLE "5:cjc030_07890"
    INDEX 01 00:18:37
  TRACK 22 AUDIO
    TITLE "0:"
    INDEX 01 00:19:32
  TRACK 23 AUDIO
    TITLE "3:cjc030_07891"
    INDEX 01 00:20:14
  TRACK 24 AUDIO
    TITLE "0:"
    INDEX 01 00:21:27
  TRACK 25 AUDIO
    TITLE "4:cjc030_07892"
    INDEX 01 00:21:35
  TRACK 26 AUDIO
    TITLE "0:"
    INDEX 01 00:22:40
  TRACK 27 AUDIO
    TITLE "5:cjc030_07893"
    INDEX 01 00:22:52
  TRACK 28 AUDIO
    TITLE "0:"
    INDEX 01 00:23:61
  TRACK 29 AUDIO
    TITLE "6:cjc030_07894"
    INDEX 01 00:23:73
  TRACK 30 AUDIO
    TITLE "0:"
    INDEX 01 00:29:17
  TRACK 31 AUDIO
    TITLE "3:cjc030_07895"
    INDEX 01 00:29:66
  TRACK 32 AUDIO
    TITLE "0:"
    INDEX 01 00:31:02
  TRACK 33 AUDIO
    TITLE "4:cjc030_07896"
    INDEX 01 00:31:12
  TRACK 34 AUDIO
    TITLE "0:"
    INDEX 01 00:32:15
  TRACK 35 AUDIO
    TITLE "5:cjc030_07897"
    INDEX 01 00:32:23
  TRACK 36 AUDIO
    TITLE "0:"
    INDEX 01 00:33:34
  TRACK 37 AUDIO
    TITLE "6:cjc030_07898"
    INDEX 01 00:33:46
  TRACK 38 AUDIO
    TITLE "0:"
    INDEX 01 00:36:56
  TRACK 39 AUDIO
    TITLE "3:cjc030_07899"
    INDEX 01 00:37:30
  TRACK 40 AUDIO
    TITLE "0:"
    INDEX 01 00:38:39
  TRACK 41 AUDIO
    TITLE "4:cjc030_07900"
    INDEX 01 00:38:47
  TRACK 42 AUDIO
    TITLE "0:"
    INDEX 01 00:42:23
  TRACK 43 AUDIO
    TITLE "5:cjc030_07901"
    INDEX 01 00:42:33
  TRACK 44 AUDIO
    TITLE "0:"
    INDEX 01 00:43:40
  TRACK 45 AUDIO
    TITLE "6:cjc030_07902"
    INDEX 01 00:43:54
  TRACK 46 AUDIO
    TITLE "0:"
    INDEX 01 00:49:55
  TRACK 47 AUDIO
    TITLE "3:cjc030_07903"
    INDEX 01 00:50:29
  TRACK 48 AUDIO
    TITLE "0:"
    INDEX 01 00:51:40
  TRACK 49 AUDIO
    TITLE "4:cjc030_07904"
    INDEX 01 00:51:50
  TRACK 50 AUDIO
    TITLE "0:"
    INDEX 01 00:54:11
  TRACK 51 AUDIO
    TITLE "5:cjc030_07905"
    INDEX 01 00:54:19
  TRACK 52 AUDIO
    TITLE "0:"
    INDEX 01 00:55:32
  TRACK 53 AUDIO
    TITLE "3:cjc030_07906"
    INDEX 01 00:56:12
  TRACK 54 AUDIO
    TITLE "0:"
    INDEX 01 00:57:25
  TRACK 55 AUDIO
    TITLE "4:cjc030_07907"
    INDEX 01 00:57:35
  TRACK 56 AUDIO
    TITLE "0:"
    INDEX 01 00:59:69
  TRACK 57 AUDIO
    TITLE "5:cjc030_07908"
    INDEX 01 01:00:02
  TRACK 58 AUDIO
    TITLE "0:"
    INDEX 01 01:01:15
  TRACK 59 AUDIO
    TITLE "3:cjc030_07909"
    INDEX 01 01:01:74
  TRACK 60 AUDIO
    TITLE "0:"
    INDEX 01 01:03:24
  TRACK 61 AUDIO
    TITLE "4:cjc030_07910"
    INDEX 01 01:03:33
  TRACK 62 AUDIO
    TITLE "0:"
    INDEX 01 01:05:68
  TRACK 63 AUDIO
    TITLE "5:cjc030_07911"
    INDEX 01 01:06:00
  TRACK 64 AUDIO
    TITLE "0:"
    INDEX 01 01:07:25
  TRACK 65 AUDIO
    TITLE "6:cjc030_07912"
    INDEX 01 01:07:37
  TRACK 66 AUDIO
    TITLE "0:"
    INDEX 01 01:12:09
